<?xml version="1.0" encoding="utf-8"?>
<!-- Generator: Adobe Illustrator 16.0.0, SVG Export Plug-In . SVG Version: 6.00 Build 0)  -->
<!DOCTYPE svg PUBLIC "-//W3C//DTD SVG 1.1//EN" "http://www.w3.org/Graphics/SVG/1.1/DTD/svg11.dtd">
<svg version="1.1" id="Layer_1" xmlns="http://www.w3.org/2000/svg" xmlns:xlink="http://www.w3.org/1999/xlink" x="0px" y="0px"
	 width="100px" height="200px" viewBox="0 0 100 200" enable-background="new 0 0 100 200" xml:space="preserve">
<g>
	<path fill="#FFFFFF" d="M-772.622-56.032c81.06,0,147.005,65.945,147.005,146.996c0,81.059-65.945,147.005-147.005,147.005
		c-81.05,0-146.996-65.946-146.996-147.005C-919.617,9.913-853.672-56.032-772.622-56.032 M-772.622-72.365
		c-90.205,0-163.329,73.123-163.329,163.329c0,90.214,73.124,163.337,163.329,163.337c90.214,0,163.338-73.123,163.338-163.337
		C-609.283,0.758-682.407-72.365-772.622-72.365L-772.622-72.365z"/>
	<path fill="#FFFFFF" d="M-835.091,90.964c0,12.631-10.238,22.869-22.87,22.869c-12.622,0-22.861-10.238-22.861-22.869
		c0-12.622,10.239-22.861,22.861-22.861C-845.329,68.103-835.091,78.342-835.091,90.964z"/>
	<path fill="#FFFFFF" d="M-710.143,90.964c0,12.631,10.239,22.869,22.87,22.869c12.622,0,22.86-10.238,22.86-22.869
		c0-12.622-10.238-22.861-22.86-22.861C-699.904,68.103-710.143,78.342-710.143,90.964z"/>
	<path fill="#FFFFFF" d="M-795.482,90.964c0,12.631,10.238,22.869,22.86,22.869c12.631,0,22.87-10.238,22.87-22.869
		c0-12.622-10.238-22.861-22.87-22.861C-785.244,68.103-795.482,78.342-795.482,90.964z"/>
</g>
</svg>
